<svg xmlns="http://www.w3.org/2000/svg" overflow="hidden">
    <defs>
        <symbol id="chocolate" width="24" height="24" viewBox="0 0 24 24">
            <path d="M2.95799 15.0568L11.0406 1.9886L11.5206 1.48303L17.6974 5.6014L17.7397 8.08665L19.2472 10.5463L12.5874 21.1038L2.95799 15.0568Z"/>
            <path d="M16.2259 17.9097L5.5868 11.2616M8.52069 6.44905L19.1598 13.0971M7.97248 19.3982L16.7742 4.96051M20.3823 11.0919C18.1025 9.6673 17.2071 8.55395 18.674 6.14767L11.4546 1.63647L2.6529 16.0742L13.2921 22.7223L20.3823 11.0919Z" stroke="#FD9222" stroke-width="2" stroke-linecap="round" stroke-linejoin="round"/>
        </symbol>

        <symbol id="chocolate@TM" width="21" height="21" viewBox="0 0 21 21">
            <path d="M2.58812 13.1747L9.66043 1.74L10.0804 1.29762L15.4851 4.90119L15.5221 7.07579L16.8412 9.22801L11.0139 18.4658L2.58812 13.1747Z"/>
            <path d="M14.1979 15.671L4.88863 9.85388M7.45579 5.64288L16.765 11.46M6.9761 16.9734L14.6776 4.34042M17.8347 9.70537C15.8399 8.45885 15.0564 7.48468 16.3399 5.37918L10.0229 1.43188L2.32147 14.0649L11.6307 19.882L17.8347 9.70537Z" stroke="#FD9222" stroke-width="1.8" stroke-linecap="round" stroke-linejoin="round"/>
        </symbol>


        <symbol id="instagram" width="24" height="24" viewBox="0 0 24 24">
            <path d="M17 2H7C4.23858 2 2 4.23858 2 7V17C2 19.7614 4.23858 22 7 22H17C19.7614 22 22 19.7614 22 17V7C22 4.23858 19.7614 2 17 2Z" stroke="#111111" stroke-width="2" stroke-linecap="round" stroke-linejoin="round"/>
            <path d="M16.0002 11.3701C16.1236 12.2023 15.9815 13.0523 15.594 13.7991C15.2065 14.5459 14.5933 15.1515 13.8418 15.5297C13.0903 15.908 12.2386 16.0397 11.408 15.906C10.5773 15.7723 9.80996 15.3801 9.21503 14.7852C8.62011 14.1903 8.22793 13.4229 8.09426 12.5923C7.9606 11.7616 8.09226 10.91 8.47052 10.1584C8.84878 9.40691 9.45438 8.7938 10.2012 8.4063C10.948 8.0188 11.7979 7.87665 12.6302 8.00006C13.4791 8.12594 14.265 8.52152 14.8719 9.12836C15.4787 9.73521 15.8743 10.5211 16.0002 11.3701Z" stroke="#111111" stroke-width="2" stroke-linecap="round" stroke-linejoin="round"/>
            <path d="M16.0002 11.3701C16.1236 12.2023 15.9815 13.0523 15.594 13.7991C15.2065 14.5459 14.5933 15.1515 13.8418 15.5297C13.0903 15.908 12.2386 16.0397 11.408 15.906C10.5773 15.7723 9.80996 15.3801 9.21503 14.7852C8.62011 14.1903 8.22793 13.4229 8.09426 12.5923C7.9606 11.7616 8.09226 10.91 8.47052 10.1584C8.84878 9.40691 9.45438 8.7938 10.2012 8.4063C10.948 8.0188 11.7979 7.87665 12.6302 8.00006C13.4791 8.12594 14.265 8.52152 14.8719 9.12836C15.4787 9.73521 15.8743 10.5211 16.0002 11.3701Z" stroke="#111111" stroke-width="2" stroke-linecap="round" stroke-linejoin="round"/>
            <path d="M17.5 6.5H17.51" stroke="#111111" stroke-width="2" stroke-linecap="round" stroke-linejoin="round"/>
            <path d="M17.5 6.5H17.51" stroke="#111111" stroke-width="2" stroke-linecap="round" stroke-linejoin="round"/>
        </symbol>

        <symbol id="instagram@M" width="22" height="22" viewBox="0 0 22 22">
            <path d="M15.5835 1.83325H6.41683C3.88552 1.83325 1.8335 3.88528 1.8335 6.41658V15.5833C1.8335 18.1146 3.88552 20.1666 6.41683 20.1666H15.5835C18.1148 20.1666 20.1668 18.1146 20.1668 15.5833V6.41658C20.1668 3.88528 18.1148 1.83325 15.5835 1.83325Z" stroke="#111111" stroke-width="1.5" stroke-linecap="round" stroke-linejoin="round"/>
            <path d="M14.6667 10.4225C14.7799 11.1854 14.6495 11.9646 14.2943 12.6491C13.9391 13.3337 13.3771 13.8888 12.6882 14.2356C11.9993 14.5823 11.2186 14.703 10.4572 14.5805C9.69576 14.4579 8.99234 14.0984 8.44699 13.5531C7.90165 13.0078 7.54214 12.3043 7.41962 11.5429C7.29709 10.7815 7.41778 10.0008 7.76452 9.31188C8.11126 8.62298 8.66639 8.06096 9.35096 7.70575C10.0355 7.35055 10.8147 7.22024 11.5776 7.33337C12.3557 7.44876 13.0762 7.81137 13.6324 8.36765C14.1887 8.92392 14.5513 9.64435 14.6667 10.4225Z" stroke="#111111" stroke-width="1.5" stroke-linecap="round" stroke-linejoin="round"/>
            <path d="M14.6667 10.4225C14.7799 11.1854 14.6495 11.9646 14.2943 12.6491C13.9391 13.3337 13.3771 13.8888 12.6882 14.2356C11.9993 14.5823 11.2186 14.703 10.4572 14.5805C9.69576 14.4579 8.99234 14.0984 8.44699 13.5531C7.90165 13.0078 7.54214 12.3043 7.41962 11.5429C7.29709 10.7815 7.41778 10.0008 7.76452 9.31188C8.11126 8.62298 8.66639 8.06096 9.35096 7.70575C10.0355 7.35055 10.8147 7.22024 11.5776 7.33337C12.3557 7.44876 13.0762 7.81137 13.6324 8.36765C14.1887 8.92392 14.5513 9.64435 14.6667 10.4225Z" stroke="#111111" stroke-width="1.5" stroke-linecap="round" stroke-linejoin="round"/>
            <path d="M16.0415 5.95825H16.0515" stroke="#111111" stroke-width="1.5" stroke-linecap="round" stroke-linejoin="round"/>
            <path d="M16.0415 5.95825H16.0515" stroke="#111111" stroke-width="1.5" stroke-linecap="round" stroke-linejoin="round"/>
        </symbol>

        <symbol id="twitter" width="24" height="24" viewBox="0 0 24 24">
            <path d="M23 3.00005C22.0424 3.67552 20.9821 4.19216 19.86 4.53005C19.2577 3.83756 18.4573 3.34674 17.567 3.12397C16.6767 2.90121 15.7395 2.95724 14.8821 3.2845C14.0247 3.61176 13.2884 4.19445 12.773 4.95376C12.2575 5.71308 11.9877 6.61238 12 7.53005V8.53005C10.2426 8.57561 8.50127 8.18586 6.93101 7.39549C5.36074 6.60513 3.51032 4.72313 2.5 3.2845C2.5 3.2845 -1 13 8 17C5.94053 18.398 3.48716 19.099 1 19C10 24 21 19 21 7.50005C20.9991 7.2215 20.9723 6.94364 20.92 6.67005C21.9406 5.66354 22.6608 4.39276 23 3.00005Z" stroke="#111111" stroke-width="2" stroke-linecap="round" stroke-linejoin="round"/>
        </symbol>

        <symbol id="twitter@M" width="20" height="20" viewBox="0 0 20 20">
            <path d="M19.1668 2.50008C18.3688 3.06298 17.4853 3.4935 16.5502 3.77508C16.0483 3.198 15.3813 2.78899 14.6394 2.60335C13.8974 2.41771 13.1164 2.46441 12.4019 2.73712C11.6874 3.00984 11.0739 3.49541 10.6443 4.12818C10.2148 4.76094 9.98991 5.51036 10.0002 6.27508V7.10841C8.53569 7.14639 7.08456 6.82159 5.776 6.16295C4.46745 5.50431 3.34209 4.19886 2.50016 3C2.50016 3 -0.833171 10.8334 6.66683 14.1667C4.9506 15.3317 2.90613 15.9159 0.833496 15.8334C8.3335 20.0001 17.5002 15.8334 17.5002 6.25008C17.4994 6.01796 17.4771 5.78641 17.4335 5.55841C18.284 4.71966 18.8842 3.66067 19.1668 2.50008Z" stroke="#111111" stroke-width="1.5" stroke-linecap="round" stroke-linejoin="round"/>
        </symbol>

        <symbol id="chocolate-bar" width="32" height="32" viewBox="0 0 32 32">
            <path d="M13.822 2.41301L21.349 9.94901L21.429 9.86901C21.5867 9.71469 21.7978 9.6272 22.0184 9.62477C22.239 9.62235 22.452 9.70519 22.613 9.85601L22.619 9.86201L23.486 10.729C23.791 11.034 23.801 11.499 23.569 11.823L23.565 11.83L23.422 12.022L29.582 18.182C30.132 18.732 30.132 19.612 29.582 20.162L20.152 29.592C19.602 30.142 18.722 30.142 18.172 29.592L13.725 25.145C13.6512 25.2381 13.5584 25.3145 13.4529 25.3692C13.3474 25.4239 13.2316 25.4556 13.1129 25.4623C12.9943 25.469 12.8756 25.4505 12.7646 25.4081C12.6536 25.3656 12.5529 25.3002 12.469 25.216L9.86901 22.616C9.71469 22.4584 9.6272 22.2472 9.62477 22.0266C9.62235 21.806 9.70519 21.593 9.85601 21.432L9.86201 21.425L9.93901 21.349L2.41201 13.822C1.86201 13.272 1.86201 12.392 2.41201 11.842L11.842 2.41201C12.392 1.86201 13.272 1.86201 13.822 2.41201V2.41301ZM20.404 10.893L18.648 9.13801C18.5928 9.0811 18.5268 9.03585 18.4538 9.00495C18.3808 8.97405 18.3023 8.95813 18.223 8.95813C18.1437 8.95813 18.0653 8.97405 17.9923 9.00495C17.9193 9.03585 17.8532 9.0811 17.798 9.13801L14.218 12.718C14.1613 12.7743 14.1163 12.8413 14.0856 12.9151C14.0548 12.9889 14.039 13.0681 14.039 13.148C14.039 13.2279 14.0548 13.3071 14.0856 13.3809C14.1163 13.4547 14.1613 13.5217 14.218 13.578L15.967 15.327L16.577 14.717L15.012 13.152L18.222 9.93201L19.791 11.506L20.404 10.893ZM15.328 15.965L13.574 14.211C13.5188 14.1541 13.4528 14.1088 13.3798 14.0779C13.3068 14.047 13.2283 14.0311 13.149 14.0311C13.0697 14.0311 12.9913 14.047 12.9183 14.0779C12.8453 14.1088 12.7792 14.1541 12.724 14.211L9.14401 17.791L9.13901 17.796L9.13401 17.801C8.89401 18.031 8.89401 18.411 9.13401 18.651L10.886 20.403L11.502 19.787L9.93201 18.223L13.152 15.013L14.716 16.576L15.328 15.965ZM8.82201 8.19301L12.402 11.773C12.642 12.013 13.022 12.013 13.252 11.763L16.832 8.18301C16.8889 8.12884 16.9342 8.06368 16.9651 7.99148C16.9961 7.91929 17.012 7.84156 17.012 7.76301H17.022C17.022 7.61301 16.962 7.45301 16.842 7.33301L13.262 3.75301C13.2058 3.69617 13.1388 3.65105 13.065 3.62025C12.9912 3.58946 12.912 3.5736 12.832 3.5736C12.752 3.5736 12.6729 3.58946 12.599 3.62025C12.5252 3.65105 12.4583 3.69617 12.402 3.75301L8.82201 7.34301C8.58201 7.57301 8.58201 7.95301 8.82201 8.19301ZM3.75201 13.263L7.33201 16.843C7.57201 17.083 7.95201 17.083 8.18201 16.843L11.762 13.263C11.8201 13.2077 11.8661 13.1409 11.8971 13.0669C11.9281 12.9929 11.9434 12.9132 11.942 12.833H11.952C11.952 12.673 11.892 12.523 11.772 12.403L8.19201 8.82301C8.13683 8.7661 8.07077 8.72085 7.99776 8.68995C7.92476 8.65905 7.84629 8.64313 7.76701 8.64313C7.68774 8.64313 7.60927 8.65905 7.53626 8.68995C7.46326 8.72085 7.3972 8.7661 7.34201 8.82301L3.75201 12.413C3.51201 12.643 3.51201 13.023 3.75201 13.263ZM10.685 22.017L13.047 24.38L22.683 11.34L22.028 10.685L10.685 22.017Z"/>
            <path d="M13.822 2.41301L21.349 9.94901L21.429 9.86901C21.5867 9.71469 21.7978 9.6272 22.0184 9.62477C22.239 9.62235 22.452 9.70519 22.613 9.85601L22.619 9.86201L23.486 10.729C23.791 11.034 23.801 11.499 23.569 11.823L23.565 11.83L23.422 12.022L29.582 18.182C30.132 18.732 30.132 19.612 29.582 20.162L20.152 29.592C19.602 30.142 18.722 30.142 18.172 29.592L13.725 25.145C13.6512 25.2381 13.5584 25.3145 13.4529 25.3692C13.3474 25.4239 13.2316 25.4556 13.1129 25.4623C12.9943 25.469 12.8756 25.4505 12.7646 25.4081C12.6536 25.3656 12.5529 25.3002 12.469 25.216L9.86901 22.616C9.71469 22.4584 9.6272 22.2472 9.62477 22.0266C9.62235 21.806 9.70519 21.593 9.85601 21.432L9.86201 21.425L9.93901 21.349L2.41201 13.822C1.86201 13.272 1.86201 12.392 2.41201 11.842L11.842 2.41201C12.392 1.86201 13.272 1.86201 13.822 2.41201V2.41301ZM20.404 10.893L18.648 9.13801C18.5928 9.0811 18.5268 9.03585 18.4538 9.00495C18.3808 8.97405 18.3023 8.95813 18.223 8.95813C18.1437 8.95813 18.0653 8.97405 17.9923 9.00495C17.9193 9.03585 17.8532 9.0811 17.798 9.13801L14.218 12.718C14.1613 12.7743 14.1163 12.8413 14.0856 12.9151C14.0548 12.9889 14.039 13.0681 14.039 13.148C14.039 13.2279 14.0548 13.3071 14.0856 13.3809C14.1163 13.4547 14.1613 13.5217 14.218 13.578L15.967 15.327L16.577 14.717L15.012 13.152L18.222 9.93201L19.791 11.506L20.404 10.893ZM15.328 15.965L13.574 14.211C13.5188 14.1541 13.4528 14.1088 13.3798 14.0779C13.3068 14.047 13.2283 14.0311 13.149 14.0311C13.0697 14.0311 12.9913 14.047 12.9183 14.0779C12.8453 14.1088 12.7792 14.1541 12.724 14.211L9.14401 17.791L9.13901 17.796L9.13401 17.801C8.89401 18.031 8.89401 18.411 9.13401 18.651L10.886 20.403L11.502 19.787L9.93201 18.223L13.152 15.013L14.716 16.576L15.328 15.965ZM8.82201 8.19301L12.402 11.773C12.642 12.013 13.022 12.013 13.252 11.763L16.832 8.18301C16.8889 8.12884 16.9342 8.06368 16.9651 7.99148C16.9961 7.91929 17.012 7.84156 17.012 7.76301H17.022C17.022 7.61301 16.962 7.45301 16.842 7.33301L13.262 3.75301C13.2058 3.69617 13.1388 3.65105 13.065 3.62025C12.9912 3.58946 12.912 3.5736 12.832 3.5736C12.752 3.5736 12.6729 3.58946 12.599 3.62025C12.5252 3.65105 12.4583 3.69617 12.402 3.75301L8.82201 7.34301C8.58201 7.57301 8.58201 7.95301 8.82201 8.19301ZM3.75201 13.263L7.33201 16.843C7.57201 17.083 7.95201 17.083 8.18201 16.843L11.762 13.263C11.8201 13.2077 11.8661 13.1409 11.8971 13.0669C11.9281 12.9929 11.9434 12.9132 11.942 12.833H11.952C11.952 12.673 11.892 12.523 11.772 12.403L8.19201 8.82301C8.13683 8.7661 8.07077 8.72085 7.99776 8.68995C7.92476 8.65905 7.84629 8.64313 7.76701 8.64313C7.68774 8.64313 7.60927 8.65905 7.53626 8.68995C7.46326 8.72085 7.3972 8.7661 7.34201 8.82301L3.75201 12.413C3.51201 12.643 3.51201 13.023 3.75201 13.263ZM10.685 22.017L13.047 24.38L22.683 11.34L22.028 10.685L10.685 22.017Z"/>
        </symbol>

        <symbol id="coin" width="32" height="32" viewBox="0 0 32 32">
            <path d="M15.9998 2.66675C8.6665 2.66675 2.6665 8.66675 2.6665 16.0001C2.6665 23.3334 8.6665 29.3334 15.9998 29.3334C23.3332 29.3334 29.3332 23.3334 29.3332 16.0001C29.3332 8.66675 23.3332 2.66675 15.9998 2.66675ZM15.9998 26.6667C10.1332 26.6667 5.33317 21.8667 5.33317 16.0001C5.33317 10.1334 10.1332 5.33341 15.9998 5.33341C21.8665 5.33341 26.6665 10.1334 26.6665 16.0001C26.6665 21.8667 21.8665 26.6667 15.9998 26.6667Z"/>
            <path d="M17.7332 14.6667H14.2666C13.5999 14.6667 13.0666 14.1333 13.0666 13.4667C13.0666 12.8 13.5999 12.2667 14.2666 12.2667H19.1999C19.9999 12.2667 20.5332 11.7333 20.5332 10.9333C20.5332 10.1333 19.9999 9.59998 19.1999 9.59998H17.3332V8.39998C17.3332 7.59998 16.7999 7.06665 15.9999 7.06665C15.1999 7.06665 14.6666 7.59998 14.6666 8.39998V9.59998H14.2666C12.1332 9.59998 10.3999 11.3333 10.3999 13.4667C10.3999 15.6 12.1332 17.3333 14.2666 17.3333H17.5999C18.2666 17.3333 18.7999 17.8666 18.7999 18.5333C18.7999 19.2 18.2666 19.7333 17.5999 19.7333H12.6666C11.8666 19.7333 11.3332 20.2667 11.3332 21.0667C11.3332 21.8667 11.8666 22.4 12.6666 22.4H14.6666V23.6C14.6666 24.4 15.1999 24.9333 15.9999 24.9333C16.7999 24.9333 17.3332 24.4 17.3332 23.6V22.4H17.7332C19.8666 22.4 21.5999 20.6667 21.5999 18.5333C21.5999 16.4 19.8666 14.6667 17.7332 14.6667Z"/>
        </symbol>

        <symbol id="spoon" width="32" height="32" viewBox="0 0 32 32">
            <path d="M15.4514 14.106C14.6688 13.156 14.2748 11.99 14.2748 10.8241C14.2748 6.50028 19.4559 2.18188 24.6369 2.18188C27.4973 2.18188 29.818 4.50302 29.818 7.36396C29.818 12.546 25.5005 17.7281 21.1721 17.7281C20.0064 17.7281 18.8406 17.334 17.8908 16.5513L5.13242 29.3122C4.4578 29.9869 3.36222 29.9869 2.6876 29.3122C2.01299 28.6374 2.01299 27.5416 2.6876 26.8669L15.4514 14.106Z"/>
        </symbol>

        <symbol id="hamburger" width="32" height="32" viewBox="0 0 32 32">
            <path d="M4 16H28M4 8H28M4 24H28" stroke="#111111" stroke-width="2.5" stroke-linecap="round" stroke-linejoin="round"/>
        </symbol>

        <symbol id="hamburger@M" width="28" height="28" viewBox="0 0 28 28">
            <path d="M3.5 14H24.5M3.5 7H24.5M3.5 21H24.5" stroke="#111111" stroke-width="2" stroke-linecap="round" stroke-linejoin="round"/>
        </symbol>

        <symbol id"angle-down" width="22" height="22" viewBox="0 0 22 22">
            <path d="M11.6512 12.2834C11.566 12.3693 11.4646 12.4375 11.3529 12.484C11.2412 12.5306 11.1214 12.5545 11.0004 12.5545C10.8794 12.5545 10.7596 12.5306 10.6479 12.484C10.5362 12.4375 10.4348 12.3693 10.3496 12.2834L6.15124 8.07588C6.06602 7.98996 5.96464 7.92177 5.85293 7.87523C5.74123 7.82869 5.62141 7.80473 5.5004 7.80473C5.37939 7.80473 5.25958 7.82869 5.14787 7.87523C5.03617 7.92177 4.93478 7.98996 4.84957 8.07588C4.67884 8.24763 4.58301 8.47996 4.58301 8.72213C4.58301 8.9643 4.67884 9.19663 4.84957 9.36838L9.05707 13.5759C9.5727 14.0909 10.2717 14.3801 11.0004 14.3801C11.7292 14.3801 12.4281 14.0909 12.9437 13.5759L17.1512 9.36838C17.3206 9.19764 17.4161 8.96719 17.4171 8.72671C17.4178 8.60607 17.3947 8.48648 17.349 8.3748C17.3034 8.26311 17.2362 8.16153 17.1512 8.07588C17.066 7.98996 16.9647 7.92177 16.8529 7.87523C16.7412 7.82869 16.6214 7.80473 16.5004 7.80473C16.3794 7.80473 16.2596 7.82869 16.1479 7.87523C16.0362 7.92177 15.9348 7.98996 15.8496 8.07588L11.6512 12.2834Z"/>
        </symbol>

        <symbol id"angle-down@M" width="16" height="16" viewBox="0 0 16 16">
            <path d="M8.47305 8.93359C8.41108 8.99607 8.33734 9.04567 8.2561 9.07952C8.17486 9.11336 8.08773 9.13079 7.99972 9.13079C7.91171 9.13079 7.82457 9.11336 7.74333 9.07952C7.6621 9.04567 7.58836 8.99607 7.52639 8.93359L4.47305 5.87359C4.41107 5.8111 4.33734 5.76151 4.2561 5.72766C4.17486 5.69381 4.08772 5.67639 3.99972 5.67639C3.91171 5.67639 3.82457 5.69381 3.74333 5.72766C3.66209 5.76151 3.58836 5.8111 3.52638 5.87359C3.40221 5.9985 3.33252 6.16746 3.33252 6.34359C3.33252 6.51971 3.40221 6.68868 3.52638 6.81359L6.58638 9.87359C6.96139 10.2481 7.46972 10.4585 7.99972 10.4585C8.52972 10.4585 9.03805 10.2481 9.41305 9.87359L12.4731 6.81359C12.5962 6.68941 12.6657 6.52182 12.6664 6.34692C12.6669 6.25918 12.6501 6.17221 12.6169 6.09098C12.5837 6.00976 12.5348 5.93588 12.4731 5.87359C12.4111 5.8111 12.3373 5.76151 12.2561 5.72766C12.1749 5.69381 12.0877 5.67639 11.9997 5.67639C11.9117 5.67639 11.8246 5.69381 11.7433 5.72766C11.6621 5.76151 11.5884 5.8111 11.5264 5.87359L8.47305 8.93359Z"/>
        </symbol>

        <symbol id="close" width="28" height="28" viewBox="0 0 28 28">
            <path d="M21 7L7 21" stroke="#111111" stroke-width="2" stroke-linecap="round" stroke-linejoin="round"/>
            <path d="M7 7L21 21" stroke="#111111" stroke-width="2" stroke-linecap="round" stroke-linejoin="round"/>
        </symbol>
    <!-- Home Icons -->
        <symbol id="icon-logo" width="24" height="24" viewBox="0 0 24 24">
            <path d="M2.95799 15.0568L11.0406 1.9886L11.5206 1.48303L17.6974 5.6014L17.7397 8.08665L19.2472 10.5463L12.5874 21.1038L2.95799 15.0568Z"/>
            <path d="M16.2259 17.9097L5.5868 11.2616M8.52069 6.44905L19.1598 13.0971M7.97248 19.3982L16.7742 4.96051M20.3823 11.0919C18.1025 9.6673 17.2071 8.55395 18.674 6.14767L11.4546 1.63647L2.6529 16.0742L13.2921 22.7223L20.3823 11.0919Z" stroke-width="2" stroke-linecap="round" stroke-linejoin="round"/>
        </symbol>

        <symbol id="icon-down" width="14" height="8" viewBox="0 0 14 8">
            <path d="M7.65076 5.28338C7.56554 5.3693 7.46415 5.43749 7.35245 5.48403C7.24075 5.53057 7.12093 5.55453 6.99992 5.55453C6.87891 5.55453 6.7591 5.53057 6.64739 5.48403C6.53569 5.43749 6.4343 5.3693 6.34909 5.28338L2.15075 1.07588C2.06553 0.989962 1.96415 0.921767 1.85244 0.875229C1.74074 0.828691 1.62092 0.804731 1.49991 0.804731C1.3789 0.804731 1.25909 0.828691 1.14738 0.875229C1.03568 0.921767 0.934296 0.989962 0.84908 1.07588C0.678349 1.24763 0.58252 1.47996 0.58252 1.72213C0.58252 1.9643 0.678349 2.19663 0.84908 2.36838L5.05659 6.57588C5.57221 7.09087 6.27117 7.38013 6.99992 7.38013C7.72867 7.38013 8.42763 7.09087 8.94326 6.57588L13.1508 2.36838C13.3201 2.19764 13.4156 1.96719 13.4166 1.72671C13.4173 1.60607 13.3942 1.48648 13.3486 1.3748C13.3029 1.26311 13.2357 1.16153 13.1508 1.07588C13.0655 0.989962 12.9642 0.921767 12.8525 0.875229C12.7408 0.828691 12.6209 0.804731 12.4999 0.804731C12.3789 0.804731 12.2591 0.828691 12.1474 0.875229C12.0357 0.921767 11.9343 0.989962 11.8491 1.07588L7.65076 5.28338Z"/>    
        </symbol>

        <symbol id="icon-menu" width="32" height="32" viewBox="0 0 32 32">
            <path d="M4 16H28M4 8H28M4 24H28" stroke-width="2.5" stroke-linecap="round" stroke-linejoin="round"/>
        </symbol>   
    </defs>
</svg>
